<svg width="184" height="184" viewBox="0 0 184 184" fill="none" xmlns="http://www.w3.org/2000/svg">
<path d="M131.531 18.147L125.063 27.669C125.063 27.669 128.587 30.4117 130.272 34.3217C131.733 37.7545 132.791 41.7795 127.219 48.5127L122.188 53.5497C105.254 39.1287 88.0441 38.4502 88.0441 38.4502H84.8126L83.0129 41.3252C83.0129 41.3252 68.3504 66.2572 54.2629 92C47.2191 104.868 40.2501 117.967 35.4086 128.3C32.9764 133.463 31.0674 137.96 29.8311 141.594C29.2274 143.411 28.7961 144.94 28.5776 146.625C28.3476 148.31 27.7209 150.621 30.5499 153.456C33.3846 156.285 35.6961 155.652 37.3809 155.428C39.0656 155.204 40.5951 154.778 42.4121 154.175C46.0519 152.938 50.5426 151.029 55.7119 148.597C66.0274 143.75 79.1259 136.792 92.0001 129.743C117.72 115.632 142.675 100.993 142.675 100.993L145.55 99.1932V95.7777C145.55 95.7777 144.785 78.775 130.456 61.8182L132.428 59.662C132.923 59.1675 133.371 58.8282 133.866 58.4027L135.303 57.1435C142.088 51.934 148.511 52.141 154.175 53.5555C158.104 54.5482 161.818 56.2514 165.134 58.581L172.322 49.5995C172.322 49.5995 165.939 44.6832 156.866 42.412C154.859 41.9403 152.817 41.6402 150.759 41.515L162.438 29.831L154.169 21.5682L142.134 33.6087C141.844 32.2524 141.422 30.9275 140.875 29.6527C137.638 22.1087 131.531 18.1527 131.531 18.1527V18.147ZM90.9191 50.669C94.6969 51.0312 105.501 52.601 118.416 65.5845C131.353 78.614 132.946 89.332 133.325 93.0752C132.382 93.6387 127.466 96.6057 123.625 98.8252C121.588 94.3077 119.056 90.0304 116.075 86.0717L106.916 93.081C110.958 98.4687 112.62 102.177 113.563 104.581C104.557 109.683 95.5122 114.714 86.4284 119.675C85.8706 119.962 85.3761 120.278 84.8126 120.572C83.7546 117.426 82.0296 113.631 78.8844 109.25L69.5406 115.897C72.3696 119.853 73.7611 123.107 74.3936 125.241C74.5029 125.603 74.5029 125.689 74.5661 125.959C65.9699 130.565 57.6611 134.987 50.8531 138.178C47.3054 139.846 44.7869 140.766 42.2281 141.772C43.2401 139.213 44.1601 136.695 45.8219 133.147C50.4679 123.245 57.3449 110.331 64.3254 97.5717C67.6949 91.4192 70.2594 86.8135 73.3126 81.397C75.1526 83.0127 77.5331 85.192 80.1436 88.5845L89.1251 81.5752C86.2088 77.7045 82.8295 74.2055 79.0626 71.1562C85.0829 60.5992 89.8899 52.4457 90.9249 50.669H90.9191Z" fill="black"/>
</svg>
