<svg width="184" height="184" viewBox="0 0 184 184" fill="none" xmlns="http://www.w3.org/2000/svg">
<path d="M60.375 31.625L63.6122 39.5312C65.6305 44.4475 68.3732 56.7353 67.7407 62.5312C59.9035 67.3612 55.0965 72.0762 51.3878 76.0093C46.8568 72.3465 37.8925 66.125 23 66.125H17.25V71.875C17.25 82.8805 21.2232 91.8218 22.6435 94.875C21.206 97.9053 17.25 106.53 17.25 117.875V123.625H23C37.7775 123.625 46.851 117.381 51.3935 113.741C58.1957 120.75 67.896 128.139 80.1435 133.688C79.603 137.258 79.1775 142.243 80.6782 148.062L81.7592 152.375H86.25C93.3455 152.375 99.4577 148.85 104.397 145.728C108.439 143.163 110.394 141.369 111.406 140.513C134.274 139.708 148.873 127.374 156.688 115.178C164.772 102.58 166.75 90.022 166.75 90.022L166.928 88.5845L166.393 87.147C166.393 87.147 153.226 50.9853 117.519 49.2315C113.723 44.6315 108.416 40.8135 100.987 37.7315C92.2012 34.0975 81.1497 31.625 69 31.625H60.375ZM77.0845 43.8438C84.341 44.6488 91.126 46.115 96.4908 48.3345C103.839 51.3705 108.957 55.7233 110.147 57.6783L111.769 60.375H115C143.727 60.375 154.06 87.5725 154.893 89.8438C154.491 91.954 152.824 99.9753 146.987 109.072C140.312 119.468 129.507 129.375 109.25 129.375H107.094L105.478 130.812C105.478 130.812 102.442 133.4 98.2905 136.022C96.1055 137.396 94.2483 137.644 92 138.54C92.23 135.913 92 132.072 92 132.072L93.2592 127.04L88.5845 125.419C74.3475 119.985 62.238 109.744 56.0625 102.603L52.1065 97.9283L47.794 102.241C47.794 102.241 40.135 107.611 30.1875 110.147C31.671 103.408 33.9595 97.3935 33.9595 97.3935L35.2188 94.875L33.9595 92.3565C33.9595 92.3565 31.4697 85.7555 30.0092 78.7003C40.6065 81.0405 47.794 87.5093 47.794 87.5093L52.1065 91.8218L56.0625 87.147C61.2088 81.3338 75.0662 66.8438 95.4155 64.147L93.794 52.8253C88.2913 53.5498 83.49 55.1425 78.8843 56.9652C78.591 52.1352 78.3438 47.978 77.0845 43.8438ZM129.375 83.375C127.088 83.375 124.894 84.2837 123.276 85.9012C121.659 87.5187 120.75 89.7125 120.75 92C120.75 94.2875 121.659 96.4813 123.276 98.0988C124.894 99.7163 127.088 100.625 129.375 100.625C131.662 100.625 133.856 99.7163 135.474 98.0988C137.091 96.4813 138 94.2875 138 92C138 89.7125 137.091 87.5187 135.474 85.9012C133.856 84.2837 131.662 83.375 129.375 83.375Z" fill="black"/>
</svg>
