<svg width="184" height="184" viewBox="0 0 184 184" fill="none" xmlns="http://www.w3.org/2000/svg">
<path d="M69 23C54.1535 23 40.9458 31.2685 31.8033 43.8438C22.6608 56.4247 17.25 73.3988 17.25 92C17.25 110.595 22.6608 127.581 31.8033 140.156C40.9458 152.737 54.1535 161 69 161C116.322 161 141.548 133.935 147.706 105.478C152.03 102.35 155.25 97.727 155.25 92C155.25 86.273 152.036 81.65 147.7 78.522C141.22 49.3465 111.05 23 69 23ZM69 34.5C79.557 34.5 89.355 40.342 96.853 50.6747C104.351 60.996 109.25 75.67 109.25 92C109.25 108.33 104.351 122.992 96.853 133.331C89.3492 143.652 79.557 149.5 69 149.5C58.443 149.5 48.645 143.658 41.147 133.325C33.649 123.004 28.75 108.33 28.75 92C28.75 75.67 33.649 61.0075 41.147 50.669C48.6508 40.342 58.443 34.5 69 34.5ZM105.656 43.3033C123.136 52.5608 134.36 67.7868 137.103 82.6562L137.638 85.5312L140.34 86.7905C142.335 87.7105 143.75 89.6425 143.75 92C143.75 94.3575 142.336 96.2895 140.335 97.2095L137.643 98.4688L137.103 101.344C134.044 117.99 124.005 134.314 103.857 143.031C104.644 142.088 105.455 141.168 106.197 140.156C115.339 127.575 120.75 110.601 120.75 92C120.75 73.4045 115.339 56.419 106.197 43.8438C106.036 43.6425 105.812 43.5045 105.656 43.3033ZM69 46C64.8888 46 61.0247 47.4835 57.5 49.956L69.1783 77.441L81.0405 50.1285C77.395 47.4663 73.2665 46 69 46ZM48.875 59.1158C44.3612 66.1883 41.262 75.6758 40.4283 86.25H60.375L48.875 59.1158ZM89.4872 59.6562L77.7975 86.25H97.566C96.761 75.9172 93.8343 66.6885 89.4758 59.6562H89.4872ZM40.4225 97.75C41.2275 108.083 44.1542 117.311 48.507 124.344L60.2025 97.75H40.4225ZM77.6192 97.75L89.1193 124.884C93.633 117.812 96.7323 108.324 97.566 97.75H77.6192ZM68.816 106.553L56.9537 133.866C60.5935 136.54 64.7277 138 68.9942 138C73.1055 138 76.9695 136.517 80.4942 134.044L68.816 106.553Z" fill="black"/>
</svg>
