<svg width="163" height="138" viewBox="0 0 163 138" fill="none" xmlns="http://www.w3.org/2000/svg">
<path d="M15.136 31.716V50.756L21.052 51.368V53H0.244V51.368L6.16 50.756V9.82L0.244 9.072V7.508H34.924V17.232H32.748L30.164 10.024L15.136 9.82V29.268H28.396L30.504 24.236H32.476V36.884H30.436L28.396 31.716H15.136ZM69.97 48.852C66.7967 52.116 62.4674 53.748 56.982 53.748C51.4967 53.748 47.1674 52.116 43.994 48.852C40.8207 45.588 39.234 41.44 39.234 36.408C39.234 31.376 40.8207 27.228 43.994 23.964C47.1674 20.7 51.4967 19.068 56.982 19.068C62.4674 19.068 66.7967 20.7 69.97 23.964C73.1434 27.228 74.73 31.376 74.73 36.408C74.73 41.44 73.1434 45.588 69.97 48.852ZM48.686 36.408C48.686 46.88 51.4514 52.116 56.982 52.116C62.5127 52.116 65.278 46.88 65.278 36.408C65.278 31.2853 64.666 27.4093 63.442 24.78C62.218 22.1053 60.0647 20.768 56.982 20.768C53.8994 20.768 51.746 22.1053 50.522 24.78C49.298 27.4093 48.686 31.2853 48.686 36.408ZM110.743 48.852C107.57 52.116 103.241 53.748 97.7555 53.748C92.2701 53.748 87.9408 52.116 84.7675 48.852C81.5941 45.588 80.0075 41.44 80.0075 36.408C80.0075 31.376 81.5941 27.228 84.7675 23.964C87.9408 20.7 92.2701 19.068 97.7555 19.068C103.241 19.068 107.57 20.7 110.743 23.964C113.917 27.228 115.503 31.376 115.503 36.408C115.503 41.44 113.917 45.588 110.743 48.852ZM89.4595 36.408C89.4595 46.88 92.2248 52.116 97.7555 52.116C103.286 52.116 106.051 46.88 106.051 36.408C106.051 31.2853 105.439 27.4093 104.215 24.78C102.991 22.1053 100.838 20.768 97.7555 20.768C94.6728 20.768 92.5195 22.1053 91.2955 24.78C90.0715 27.4093 89.4595 31.2853 89.4595 36.408ZM135.197 54.02C131.072 54.02 127.649 52.6373 124.929 49.872C122.209 47.1067 120.849 42.936 120.849 37.36C120.849 31.784 122.458 27.3867 125.677 24.168C128.941 20.9493 133.27 19.34 138.665 19.34C141.476 19.34 144.128 19.9973 146.621 21.312V4.04L140.773 3.632V1.932L155.325 0.776V51.436L161.105 51.708L161.173 53.272L146.961 54.088L147.097 47.968H146.689C145.556 49.872 143.946 51.368 141.861 52.456C139.776 53.4987 137.554 54.02 135.197 54.02ZM146.553 42.528V23.828C144.74 22.1507 142.428 21.312 139.617 21.312C136.036 21.312 133.588 22.9667 132.273 26.276C131.185 29.1773 130.641 32.872 130.641 37.36C130.641 47.016 132.794 51.844 137.101 51.844C139.64 51.844 141.838 50.756 143.697 48.58C145.601 46.404 146.553 44.3867 146.553 42.528ZM1.332 101.572V91.576L40.908 91.44V93.548L11.532 133.532L36.08 133.668L38.46 126.188H40.704V136.116L0.38 136.252V134.348L30.028 94.16L5.956 94.024L3.576 101.572H1.332ZM68.6531 113.268C68.6531 107.737 66.7264 104.972 62.8731 104.972C58.8384 104.972 56.3904 108.508 55.5291 115.58H68.5171C68.6077 114.673 68.6531 113.903 68.6531 113.268ZM62.2611 137.748C57.4104 137.748 53.4664 136.161 50.4291 132.988C47.4371 129.815 45.9411 125.621 45.9411 120.408C45.9411 115.195 47.5051 111.001 50.6331 107.828C53.8064 104.655 57.8184 103.068 62.6691 103.068C67.5197 103.068 71.1464 104.111 73.5491 106.196C75.9517 108.236 77.1531 111.092 77.1531 114.764C77.1531 115.807 77.0624 116.895 76.8811 118.028H55.3251V120.408C55.3251 125.485 55.9597 129.339 57.2291 131.968C58.4984 134.552 60.4024 135.844 62.9411 135.844C65.5251 135.844 67.8597 135.323 69.9451 134.28C72.0757 133.192 73.7304 131.673 74.9091 129.724C75.9064 130.041 76.4051 130.517 76.4051 131.152C76.4051 132.285 75.3397 133.6 73.2091 135.096C72.1664 135.821 70.6704 136.456 68.7211 137C66.8171 137.499 64.6637 137.748 62.2611 137.748ZM94.5701 111.84C95.3408 109.392 96.7461 107.307 98.7861 105.584C100.871 103.861 102.753 103 104.43 103C106.153 103 107.309 103.431 107.898 104.292C108.487 105.108 108.782 105.788 108.782 106.332C108.782 108.191 108.102 109.528 106.742 110.344C105.835 109.619 104.475 109.256 102.662 109.256C100.894 109.256 99.1261 109.823 97.3581 110.956C95.5901 112.044 94.7061 113.245 94.7061 114.56V135.028L100.826 135.436V137H81.8541V135.436L86.3421 135.096V106.06L80.8341 105.788V104.224L94.7061 103.476L94.2981 111.84H94.5701ZM142.087 132.852C138.914 136.116 134.585 137.748 129.099 137.748C123.614 137.748 119.285 136.116 116.111 132.852C112.938 129.588 111.351 125.44 111.351 120.408C111.351 115.376 112.938 111.228 116.111 107.964C119.285 104.7 123.614 103.068 129.099 103.068C134.585 103.068 138.914 104.7 142.087 107.964C145.261 111.228 146.847 115.376 146.847 120.408C146.847 125.44 145.261 129.588 142.087 132.852ZM120.803 120.408C120.803 130.88 123.569 136.116 129.099 136.116C134.63 136.116 137.395 130.88 137.395 120.408C137.395 115.285 136.783 111.409 135.559 108.78C134.335 106.105 132.182 104.768 129.099 104.768C126.017 104.768 123.863 106.105 122.639 108.78C121.415 111.409 120.803 115.285 120.803 120.408ZM162.597 132.988C162.597 134.257 162.121 135.391 161.169 136.388C160.262 137.34 159.129 137.816 157.769 137.816C156.409 137.816 155.253 137.34 154.301 136.388C153.394 135.436 152.941 134.303 152.941 132.988C152.941 131.628 153.417 130.472 154.369 129.52C155.321 128.568 156.454 128.092 157.769 128.092C159.083 128.092 160.217 128.591 161.169 129.588C162.121 130.54 162.597 131.673 162.597 132.988Z" fill="white"/>
</svg>
